<svg xmlns="http://www.w3.org/2000/svg" viewBox="0 0 960 240" width="960" height="240" role="img" aria-label="Howl PA banner">
  <defs>
    <linearGradient id="b-fur" x1="0" y1="0" x2="0" y2="1">
      <stop offset="0%" stop-color="#a6d6ff"/>
      <stop offset="100%" stop-color="#4b8cc9"/>
    </linearGradient>
    <linearGradient id="b-glow" x1="0" y1="0" x2="1" y2="0">
      <stop offset="0%" stop-color="#7cc5ff" stop-opacity="0"/>
      <stop offset="40%" stop-color="#7cc5ff" stop-opacity=".15"/>
      <stop offset="100%" stop-color="#b389ff" stop-opacity="0"/>
    </linearGradient>
    <linearGradient id="b-text" x1="0" y1="0" x2="1" y2="0">
      <stop offset="0%" stop-color="#edf0f6"/>
      <stop offset="100%" stop-color="#b389ff"/>
    </linearGradient>
  </defs>
  <rect width="960" height="240" fill="#0b0c10"/>
  <rect width="960" height="240" fill="url(#b-glow)"/>
  <g transform="translate(48,44) scale(0.59)">
    <g fill="url(#b-fur)" stroke="#edf0f6" stroke-width="1.3" stroke-linejoin="round">
      <path d="M20 16 L96 88 L88 120 L56 104 Z"/>
      <path d="M236 16 L160 88 L168 120 L200 104 Z"/>
      <path d="M56 80 L40 136 L72 192 L120 248 L136 248 L184 192 L216 136 L200 80 L168 104 L136 128 L120 128 L88 104 Z"/>
    </g>
    <g fill="#0b0c10">
      <path d="M68 112 L112 136 L104 112 Z"/>
      <path d="M188 112 L144 136 L152 112 Z"/>
      <path d="M84 176 L92 200 L108 184 L120 208 L128 184 L136 208 L148 184 L164 200 L172 176 Z"/>
    </g>
    <g fill="#edf0f6">
      <path d="M106 188 L108 204 L113 190 Z"/>
      <path d="M150 188 L148 204 L143 190 Z"/>
    </g>
  </g>
  <g font-family="ui-monospace, SFMono-Regular, Menlo, Consolas, monospace" fill="url(#b-text)">
    <text x="220" y="122" font-size="72" font-weight="700" letter-spacing="10">HOWL PA</text>
    <text x="222" y="156" font-size="18" font-weight="400" letter-spacing="6" fill="#a1a7b5">personal mission control</text>
  </g>
  <g fill="#272b36">
    <rect x="220" y="178" width="620" height="1"/>
  </g>
  <g font-family="ui-monospace, SFMono-Regular, Menlo, Consolas, monospace" fill="#a1a7b5">
    <text x="220" y="202" font-size="14" letter-spacing="3">TELEGRAM · DASHBOARD · CLAUDE CODE</text>
  </g>
</svg>
